<?xml version="1.0" encoding="UTF-8" standalone="no"?>
<!DOCTYPE svg PUBLIC "-//W3C//DTD SVG 1.1//EN"
 "http://www.w3.org/Graphics/SVG/1.1/DTD/svg11.dtd">
<!-- Generated by graphviz version 2.38.0 (20140413.2041)
 -->
<!-- Title: G Pages: 1 -->
<svg width="975pt" height="373pt"
 viewBox="0.00 0.00 975.20 373.20" xmlns="http://www.w3.org/2000/svg" xmlns:xlink="http://www.w3.org/1999/xlink">
<g id="graph0" class="graph" transform="scale(1 1) rotate(0) translate(21.6 351.6)">
<title>G</title>
<polygon fill="#111111" stroke="none" points="-21.6,21.6 -21.6,-351.6 953.6,-351.6 953.6,21.6 -21.6,21.6"/>
<!-- connector.js -->
<g id="node1" class="node"><title>connector.js</title>
<path fill="none" stroke="#c6c5fe" d="M187.333,-207C187.333,-207 108.667,-207 108.667,-207 104.833,-207 101,-203.167 101,-199.333 101,-199.333 101,-191.667 101,-191.667 101,-187.833 104.833,-184 108.667,-184 108.667,-184 187.333,-184 187.333,-184 191.167,-184 195,-187.833 195,-191.667 195,-191.667 195,-199.333 195,-199.333 195,-203.167 191.167,-207 187.333,-207"/>
<text text-anchor="middle" x="148" y="-191.8" font-family="Arial" font-size="14.00" fill="#c6c5fe">connector.js</text>
</g>
<!-- connectors/connectController.js -->
<g id="node2" class="node"><title>connectors/connectController.js</title>
<path fill="none" stroke="#c6c5fe" d="M440.333,-310C440.333,-310 238.667,-310 238.667,-310 234.833,-310 231,-306.167 231,-302.333 231,-302.333 231,-294.667 231,-294.667 231,-290.833 234.833,-287 238.667,-287 238.667,-287 440.333,-287 440.333,-287 444.167,-287 448,-290.833 448,-294.667 448,-294.667 448,-302.333 448,-302.333 448,-306.167 444.167,-310 440.333,-310"/>
<text text-anchor="middle" x="339.5" y="-294.8" font-family="Arial" font-size="14.00" fill="#c6c5fe">connectors/connectController.js</text>
</g>
<!-- connector.js&#45;&gt;connectors/connectController.js -->
<g id="edge1" class="edge"><title>connector.js&#45;&gt;connectors/connectController.js</title>
<path fill="none" stroke="#757575" d="M156.784,-207.06C169.814,-225.414 197.895,-260.94 231,-278.5 234.341,-280.272 237.813,-281.89 241.375,-283.366"/>
<polygon fill="#757575" stroke="#757575" points="240.396,-286.736 250.988,-286.952 242.843,-280.177 240.396,-286.736"/>
</g>
<!-- connectors/connectSecurity.js -->
<g id="node3" class="node"><title>connectors/connectSecurity.js</title>
<path fill="none" stroke="#cfffac" d="M434.833,-269C434.833,-269 244.167,-269 244.167,-269 240.333,-269 236.5,-265.167 236.5,-261.333 236.5,-261.333 236.5,-253.667 236.5,-253.667 236.5,-249.833 240.333,-246 244.167,-246 244.167,-246 434.833,-246 434.833,-246 438.667,-246 442.5,-249.833 442.5,-253.667 442.5,-253.667 442.5,-261.333 442.5,-261.333 442.5,-265.167 438.667,-269 434.833,-269"/>
<text text-anchor="middle" x="339.5" y="-253.8" font-family="Arial" font-size="14.00" fill="#cfffac">connectors/connectSecurity.js</text>
</g>
<!-- connector.js&#45;&gt;connectors/connectSecurity.js -->
<g id="edge2" class="edge"><title>connector.js&#45;&gt;connectors/connectSecurity.js</title>
<path fill="none" stroke="#757575" d="M167.854,-207.156C184.042,-216.668 208.292,-229.756 231,-237.5 237.519,-239.723 244.349,-241.718 251.272,-243.504"/>
<polygon fill="#757575" stroke="#757575" points="250.911,-247.018 261.454,-245.974 252.561,-240.215 250.911,-247.018"/>
</g>
<!-- errors.js -->
<g id="node4" class="node"><title>errors.js</title>
<path fill="none" stroke="#cfffac" d="M365.833,-228C365.833,-228 313.167,-228 313.167,-228 309.333,-228 305.5,-224.167 305.5,-220.333 305.5,-220.333 305.5,-212.667 305.5,-212.667 305.5,-208.833 309.333,-205 313.167,-205 313.167,-205 365.833,-205 365.833,-205 369.667,-205 373.5,-208.833 373.5,-212.667 373.5,-212.667 373.5,-220.333 373.5,-220.333 373.5,-224.167 369.667,-228 365.833,-228"/>
<text text-anchor="middle" x="339.5" y="-212.8" font-family="Arial" font-size="14.00" fill="#cfffac">errors.js</text>
</g>
<!-- connector.js&#45;&gt;errors.js -->
<g id="edge3" class="edge"><title>connector.js&#45;&gt;errors.js</title>
<path fill="none" stroke="#757575" d="M195.357,-200.637C225.84,-204.015 265.458,-208.406 295.284,-211.711"/>
<polygon fill="#757575" stroke="#757575" points="295.07,-215.208 305.394,-212.831 295.841,-208.251 295.07,-215.208"/>
</g>
<!-- extract/extractVersion.js -->
<g id="node5" class="node"><title>extract/extractVersion.js</title>
<path fill="none" stroke="#cfffac" d="M415.333,-187C415.333,-187 263.667,-187 263.667,-187 259.833,-187 256,-183.167 256,-179.333 256,-179.333 256,-171.667 256,-171.667 256,-167.833 259.833,-164 263.667,-164 263.667,-164 415.333,-164 415.333,-164 419.167,-164 423,-167.833 423,-171.667 423,-171.667 423,-179.333 423,-179.333 423,-183.167 419.167,-187 415.333,-187"/>
<text text-anchor="middle" x="339.5" y="-171.8" font-family="Arial" font-size="14.00" fill="#cfffac">extract/extractVersion.js</text>
</g>
<!-- connector.js&#45;&gt;extract/extractVersion.js -->
<g id="edge4" class="edge"><title>connector.js&#45;&gt;extract/extractVersion.js</title>
<path fill="none" stroke="#757575" d="M195.357,-190.607C210.562,-189.003 228.04,-187.158 245.441,-185.322"/>
<polygon fill="#757575" stroke="#757575" points="246.083,-188.773 255.66,-184.243 245.348,-181.812 246.083,-188.773"/>
</g>
<!-- extract/v2/extractPaths.js -->
<g id="node6" class="node"><title>extract/v2/extractPaths.js</title>
<path fill="none" stroke="#c6c5fe" d="M418.333,-146C418.333,-146 260.667,-146 260.667,-146 256.833,-146 253,-142.167 253,-138.333 253,-138.333 253,-130.667 253,-130.667 253,-126.833 256.833,-123 260.667,-123 260.667,-123 418.333,-123 418.333,-123 422.167,-123 426,-126.833 426,-130.667 426,-130.667 426,-138.333 426,-138.333 426,-142.167 422.167,-146 418.333,-146"/>
<text text-anchor="middle" x="339.5" y="-130.8" font-family="Arial" font-size="14.00" fill="#c6c5fe">extract/v2/extractPaths.js</text>
</g>
<!-- connector.js&#45;&gt;extract/v2/extractPaths.js -->
<g id="edge5" class="edge"><title>connector.js&#45;&gt;extract/v2/extractPaths.js</title>
<path fill="none" stroke="#757575" d="M168.217,-183.954C184.427,-174.697 208.517,-162.045 231,-154.5 237.743,-152.237 244.815,-150.208 251.976,-148.393"/>
<polygon fill="#757575" stroke="#757575" points="252.861,-151.78 261.772,-146.048 251.232,-144.972 252.861,-151.78"/>
</g>
<!-- extract/v3/extractPaths.js -->
<g id="node7" class="node"><title>extract/v3/extractPaths.js</title>
<path fill="none" stroke="#c6c5fe" d="M418.333,-105C418.333,-105 260.667,-105 260.667,-105 256.833,-105 253,-101.167 253,-97.3333 253,-97.3333 253,-89.6667 253,-89.6667 253,-85.8333 256.833,-82 260.667,-82 260.667,-82 418.333,-82 418.333,-82 422.167,-82 426,-85.8333 426,-89.6667 426,-89.6667 426,-97.3333 426,-97.3333 426,-101.167 422.167,-105 418.333,-105"/>
<text text-anchor="middle" x="339.5" y="-89.8" font-family="Arial" font-size="14.00" fill="#c6c5fe">extract/v3/extractPaths.js</text>
</g>
<!-- connector.js&#45;&gt;extract/v3/extractPaths.js -->
<g id="edge6" class="edge"><title>connector.js&#45;&gt;extract/v3/extractPaths.js</title>
<path fill="none" stroke="#757575" d="M157.032,-183.785C170.201,-165.57 198.222,-130.76 231,-113.5 234.981,-111.404 239.147,-109.524 243.429,-107.839"/>
<polygon fill="#757575" stroke="#757575" points="244.71,-111.098 252.961,-104.452 242.367,-104.502 244.71,-111.098"/>
</g>
<!-- routes/notFound.js -->
<g id="node8" class="node"><title>routes/notFound.js</title>
<path fill="none" stroke="#cfffac" d="M659.833,-289C659.833,-289 541.167,-289 541.167,-289 537.333,-289 533.5,-285.167 533.5,-281.333 533.5,-281.333 533.5,-273.667 533.5,-273.667 533.5,-269.833 537.333,-266 541.167,-266 541.167,-266 659.833,-266 659.833,-266 663.667,-266 667.5,-269.833 667.5,-273.667 667.5,-273.667 667.5,-281.333 667.5,-281.333 667.5,-285.167 663.667,-289 659.833,-289"/>
<text text-anchor="middle" x="600.5" y="-273.8" font-family="Arial" font-size="14.00" fill="#cfffac">routes/notFound.js</text>
</g>
<!-- connectors/connectController.js&#45;&gt;routes/notFound.js -->
<g id="edge7" class="edge"><title>connectors/connectController.js&#45;&gt;routes/notFound.js</title>
<path fill="none" stroke="#757575" d="M448.089,-289.777C473.271,-287.735 499.592,-285.601 523.092,-283.695"/>
<polygon fill="#757575" stroke="#757575" points="523.642,-287.162 533.326,-282.865 523.076,-280.185 523.642,-287.162"/>
</g>
<!-- routes/notImplemented.js -->
<g id="node9" class="node"><title>routes/notImplemented.js</title>
<path fill="none" stroke="#cfffac" d="M681.833,-330C681.833,-330 519.167,-330 519.167,-330 515.333,-330 511.5,-326.167 511.5,-322.333 511.5,-322.333 511.5,-314.667 511.5,-314.667 511.5,-310.833 515.333,-307 519.167,-307 519.167,-307 681.833,-307 681.833,-307 685.667,-307 689.5,-310.833 689.5,-314.667 689.5,-314.667 689.5,-322.333 689.5,-322.333 689.5,-326.167 685.667,-330 681.833,-330"/>
<text text-anchor="middle" x="600.5" y="-314.8" font-family="Arial" font-size="14.00" fill="#cfffac">routes/notImplemented.js</text>
</g>
<!-- connectors/connectController.js&#45;&gt;routes/notImplemented.js -->
<g id="edge8" class="edge"><title>connectors/connectController.js&#45;&gt;routes/notImplemented.js</title>
<path fill="none" stroke="#757575" d="M448.089,-306.808C465.633,-308.163 483.729,-309.56 501.039,-310.897"/>
<polygon fill="#757575" stroke="#757575" points="500.89,-314.396 511.129,-311.676 501.429,-307.416 500.89,-314.396"/>
</g>
<!-- constants.js -->
<g id="node10" class="node"><title>constants.js</title>
<path fill="none" stroke="#cfffac" d="M638.833,-64C638.833,-64 562.167,-64 562.167,-64 558.333,-64 554.5,-60.1667 554.5,-56.3333 554.5,-56.3333 554.5,-48.6667 554.5,-48.6667 554.5,-44.8333 558.333,-41 562.167,-41 562.167,-41 638.833,-41 638.833,-41 642.667,-41 646.5,-44.8333 646.5,-48.6667 646.5,-48.6667 646.5,-56.3333 646.5,-56.3333 646.5,-60.1667 642.667,-64 638.833,-64"/>
<text text-anchor="middle" x="600.5" y="-48.8" font-family="Arial" font-size="14.00" fill="#cfffac">constants.js</text>
</g>
<!-- extract/v2/extractPaths.js&#45;&gt;constants.js -->
<g id="edge9" class="edge"><title>extract/v2/extractPaths.js&#45;&gt;constants.js</title>
<path fill="none" stroke="#757575" d="M426.03,-123.258C433.709,-120.641 441.158,-117.432 448,-113.5 469.025,-101.418 462.846,-84.3562 484,-72.5 502.224,-62.286 524.405,-57.0476 544.439,-54.4368"/>
<polygon fill="#757575" stroke="#757575" points="544.83,-57.915 554.38,-53.3272 544.053,-50.9582 544.83,-57.915"/>
</g>
<!-- normalise/normaliseOperationId.js -->
<g id="node11" class="node"><title>normalise/normaliseOperationId.js</title>
<path fill="none" stroke="#cfffac" d="M709.333,-187C709.333,-187 491.667,-187 491.667,-187 487.833,-187 484,-183.167 484,-179.333 484,-179.333 484,-171.667 484,-171.667 484,-167.833 487.833,-164 491.667,-164 491.667,-164 709.333,-164 709.333,-164 713.167,-164 717,-167.833 717,-171.667 717,-171.667 717,-179.333 717,-179.333 717,-183.167 713.167,-187 709.333,-187"/>
<text text-anchor="middle" x="600.5" y="-171.8" font-family="Arial" font-size="14.00" fill="#cfffac">normalise/normaliseOperationId.js</text>
</g>
<!-- extract/v2/extractPaths.js&#45;&gt;normalise/normaliseOperationId.js -->
<g id="edge10" class="edge"><title>extract/v2/extractPaths.js&#45;&gt;normalise/normaliseOperationId.js</title>
<path fill="none" stroke="#757575" d="M413.335,-146.03C445.471,-151.117 483.406,-157.122 516.619,-162.38"/>
<polygon fill="#757575" stroke="#757575" points="516.339,-165.879 526.763,-163.986 517.433,-158.965 516.339,-165.879"/>
</g>
<!-- normalise/normaliseRoute.js -->
<g id="node12" class="node"><title>normalise/normaliseRoute.js</title>
<path fill="none" stroke="#cfffac" d="M690.833,-146C690.833,-146 510.167,-146 510.167,-146 506.333,-146 502.5,-142.167 502.5,-138.333 502.5,-138.333 502.5,-130.667 502.5,-130.667 502.5,-126.833 506.333,-123 510.167,-123 510.167,-123 690.833,-123 690.833,-123 694.667,-123 698.5,-126.833 698.5,-130.667 698.5,-130.667 698.5,-138.333 698.5,-138.333 698.5,-142.167 694.667,-146 690.833,-146"/>
<text text-anchor="middle" x="600.5" y="-130.8" font-family="Arial" font-size="14.00" fill="#cfffac">normalise/normaliseRoute.js</text>
</g>
<!-- extract/v2/extractPaths.js&#45;&gt;normalise/normaliseRoute.js -->
<g id="edge11" class="edge"><title>extract/v2/extractPaths.js&#45;&gt;normalise/normaliseRoute.js</title>
<path fill="none" stroke="#757575" d="M426.024,-134.5C447.235,-134.5 470.232,-134.5 492.334,-134.5"/>
<polygon fill="#757575" stroke="#757575" points="492.416,-138 502.416,-134.5 492.416,-131 492.416,-138"/>
</g>
<!-- normalise/normaliseSecurity.js -->
<g id="node13" class="node"><title>normalise/normaliseSecurity.js</title>
<path fill="none" stroke="#cfffac" d="M697.333,-105C697.333,-105 503.667,-105 503.667,-105 499.833,-105 496,-101.167 496,-97.3333 496,-97.3333 496,-89.6667 496,-89.6667 496,-85.8333 499.833,-82 503.667,-82 503.667,-82 697.333,-82 697.333,-82 701.167,-82 705,-85.8333 705,-89.6667 705,-89.6667 705,-97.3333 705,-97.3333 705,-101.167 701.167,-105 697.333,-105"/>
<text text-anchor="middle" x="600.5" y="-89.8" font-family="Arial" font-size="14.00" fill="#cfffac">normalise/normaliseSecurity.js</text>
</g>
<!-- extract/v2/extractPaths.js&#45;&gt;normalise/normaliseSecurity.js -->
<g id="edge12" class="edge"><title>extract/v2/extractPaths.js&#45;&gt;normalise/normaliseSecurity.js</title>
<path fill="none" stroke="#757575" d="M413.335,-122.97C445.471,-117.883 483.406,-111.878 516.619,-106.62"/>
<polygon fill="#757575" stroke="#757575" points="517.433,-110.035 526.763,-105.014 516.339,-103.121 517.433,-110.035"/>
</g>
<!-- extract/v3/extractPaths.js&#45;&gt;constants.js -->
<g id="edge14" class="edge"><title>extract/v3/extractPaths.js&#45;&gt;constants.js</title>
<path fill="none" stroke="#757575" d="M413.335,-81.9701C454.951,-75.3822 506.293,-67.2548 544.511,-61.2048"/>
<polygon fill="#757575" stroke="#757575" points="545.096,-64.6558 554.426,-59.6352 544.002,-57.7419 545.096,-64.6558"/>
</g>
<!-- extract/v3/extractPaths.js&#45;&gt;normalise/normaliseOperationId.js -->
<g id="edge16" class="edge"><title>extract/v3/extractPaths.js&#45;&gt;normalise/normaliseOperationId.js</title>
<path fill="none" stroke="#757575" d="M426.017,-103.891C433.699,-106.448 441.152,-109.605 448,-113.5 469.079,-125.488 462.896,-142.555 484,-154.5 487.741,-156.618 491.65,-158.529 495.674,-160.253"/>
<polygon fill="#757575" stroke="#757575" points="494.656,-163.612 505.245,-163.947 497.176,-157.081 494.656,-163.612"/>
</g>
<!-- extract/v3/extractPaths.js&#45;&gt;normalise/normaliseRoute.js -->
<g id="edge17" class="edge"><title>extract/v3/extractPaths.js&#45;&gt;normalise/normaliseRoute.js</title>
<path fill="none" stroke="#757575" d="M413.335,-105.03C445.471,-110.117 483.406,-116.122 516.619,-121.38"/>
<polygon fill="#757575" stroke="#757575" points="516.339,-124.879 526.763,-122.986 517.433,-117.965 516.339,-124.879"/>
</g>
<!-- extract/v3/extractPaths.js&#45;&gt;normalise/normaliseSecurity.js -->
<g id="edge18" class="edge"><title>extract/v3/extractPaths.js&#45;&gt;normalise/normaliseSecurity.js</title>
<path fill="none" stroke="#757575" d="M426.024,-93.5C445.058,-93.5 465.529,-93.5 485.502,-93.5"/>
<polygon fill="#757575" stroke="#757575" points="485.573,-97.0001 495.573,-93.5 485.573,-90.0001 485.573,-97.0001"/>
</g>
<!-- extract/v3/basePath.js -->
<g id="node14" class="node"><title>extract/v3/basePath.js</title>
<path fill="none" stroke="#c6c5fe" d="M670.333,-23C670.333,-23 530.667,-23 530.667,-23 526.833,-23 523,-19.1667 523,-15.3333 523,-15.3333 523,-7.66667 523,-7.66667 523,-3.83333 526.833,-0 530.667,-0 530.667,-0 670.333,-0 670.333,-0 674.167,-0 678,-3.83333 678,-7.66667 678,-7.66667 678,-15.3333 678,-15.3333 678,-19.1667 674.167,-23 670.333,-23"/>
<text text-anchor="middle" x="600.5" y="-7.8" font-family="Arial" font-size="14.00" fill="#c6c5fe">extract/v3/basePath.js</text>
</g>
<!-- extract/v3/extractPaths.js&#45;&gt;extract/v3/basePath.js -->
<g id="edge15" class="edge"><title>extract/v3/extractPaths.js&#45;&gt;extract/v3/basePath.js</title>
<path fill="none" stroke="#757575" d="M362.746,-81.9172C390.439,-67.9652 439.525,-44.7547 484,-31.5 493.288,-28.7319 503.118,-26.3015 512.966,-24.179"/>
<polygon fill="#757575" stroke="#757575" points="513.71,-27.5993 522.801,-22.158 512.301,-20.7425 513.71,-27.5993"/>
</g>
<!-- utils/substituteVariables.js -->
<g id="node15" class="node"><title>utils/substituteVariables.js</title>
<path fill="none" stroke="#cfffac" d="M924.333,-23C924.333,-23 760.667,-23 760.667,-23 756.833,-23 753,-19.1667 753,-15.3333 753,-15.3333 753,-7.66667 753,-7.66667 753,-3.83333 756.833,-0 760.667,-0 760.667,-0 924.333,-0 924.333,-0 928.167,-0 932,-3.83333 932,-7.66667 932,-7.66667 932,-15.3333 932,-15.3333 932,-19.1667 928.167,-23 924.333,-23"/>
<text text-anchor="middle" x="842.5" y="-7.8" font-family="Arial" font-size="14.00" fill="#cfffac">utils/substituteVariables.js</text>
</g>
<!-- extract/v3/basePath.js&#45;&gt;utils/substituteVariables.js -->
<g id="edge13" class="edge"><title>extract/v3/basePath.js&#45;&gt;utils/substituteVariables.js</title>
<path fill="none" stroke="#757575" d="M678.097,-11.5C698.585,-11.5 721.024,-11.5 742.532,-11.5"/>
<polygon fill="#757575" stroke="#757575" points="742.67,-15.0001 752.67,-11.5 742.67,-8.0001 742.67,-15.0001"/>
</g>
<!-- index.js -->
<g id="node16" class="node"><title>index.js</title>
<path fill="none" stroke="#c6c5fe" d="M57.3333,-207C57.3333,-207 7.66667,-207 7.66667,-207 3.83333,-207 0,-203.167 0,-199.333 0,-199.333 0,-191.667 0,-191.667 0,-187.833 3.83333,-184 7.66667,-184 7.66667,-184 57.3333,-184 57.3333,-184 61.1667,-184 65,-187.833 65,-191.667 65,-191.667 65,-199.333 65,-199.333 65,-203.167 61.1667,-207 57.3333,-207"/>
<text text-anchor="middle" x="32.5" y="-191.8" font-family="Arial" font-size="14.00" fill="#c6c5fe">index.js</text>
</g>
<!-- index.js&#45;&gt;connector.js -->
<g id="edge19" class="edge"><title>index.js&#45;&gt;connector.js</title>
<path fill="none" stroke="#757575" d="M65.1161,-195.5C73.0365,-195.5 81.7754,-195.5 90.5062,-195.5"/>
<polygon fill="#757575" stroke="#757575" points="90.7022,-199 100.702,-195.5 90.7022,-192 90.7022,-199"/>
</g>
</g>
</svg>
